<svg id="Layer_1" data-name="Layer 1" xmlns="http://www.w3.org/2000/svg" viewBox="0 0 30 26.84"><defs><style>.cls-1{fill:#cac9c9;}</style></defs><title>cart</title><path class="cls-1" d="M24.48,26.84a3.56,3.56,0,0,1-3.54-3.57,3.51,3.51,0,0,1,.19-1.17H13.61a3.51,3.51,0,0,1,.19,1.17,3.56,3.56,0,0,1-3.54,3.57A3.56,3.56,0,0,1,6.72,23.3a3.5,3.5,0,0,1,.47-1.77,3.67,3.67,0,0,1,.82-1L4.79,4.72H2a2,2,0,0,1-2-2V2A2,2,0,0,1,2,0H7.05A1.87,1.87,0,0,1,8.27.46a2,2,0,0,1,.67,1.07v0l0.32,1.6H28a1.9,1.9,0,0,1,1.55.75,1.84,1.84,0,0,1,.34,1.65L27.62,15.81a1.93,1.93,0,0,1-1.9,1.55H12.19v0H24.83a1.85,1.85,0,0,1,1.5.74,2,2,0,0,1,.4,1.6v0l-0.16.67a3.41,3.41,0,0,1,.93,1A3.52,3.52,0,0,1,27,25.8,3.43,3.43,0,0,1,24.48,26.84Zm-14.26-6.3h14.3l-1.43,1.34a1.79,1.79,0,0,0-.59,1.38,1.92,1.92,0,0,0,.59,1.43,2,2,0,1,0,2.26-3.17l-0.58-.27,0.44-1.83a0.42,0.42,0,0,0-.1-0.35,0.3,0.3,0,0,0-.27-0.14H10.9L10.31,15.8H25.72A0.37,0.37,0,0,0,26,15.72a0.38,0.38,0,0,0,.13-0.24h0L28.43,5.17a0.3,0.3,0,0,0-.06-0.3A0.35,0.35,0,0,0,28,4.72H8L7.43,1.89a0.48,0.48,0,0,0-.16-0.25,0.3,0.3,0,0,0-.21-0.09H2a0.37,0.37,0,0,0-.29.12A0.37,0.37,0,0,0,1.56,2V2.75A0.37,0.37,0,0,0,1.67,3,0.37,0.37,0,0,0,2,3.16H6.06l3.69,18.1-0.46.29a2.12,2.12,0,0,0-.75.76,1.94,1.94,0,0,0-.27,1,2,2,0,0,0,2,2,1.9,1.9,0,0,0,1.4-.59,1.92,1.92,0,0,0,.59-1.43,1.79,1.79,0,0,0-.59-1.38Z"/></svg>