<?xml version="1.0" encoding="utf-8"?>
<!-- Generator: Adobe Illustrator 24.0.1, SVG Export Plug-In . SVG Version: 6.00 Build 0)  -->
<svg version="1.1" id="Layer_1" xmlns="http://www.w3.org/2000/svg" xmlns:xlink="http://www.w3.org/1999/xlink" x="0px" y="0px"
	 viewBox="0 0 27.4 29.7" style="enable-background:new 0 0 27.4 29.7;" xml:space="preserve">
<style type="text/css">
	.st0{fill:#CAC9C9;}
	.st1{fill:#FFFFFF;stroke:#CAC9C9;stroke-width:1.25;stroke-miterlimit:10;}
</style>
<title>user</title>
<path class="st0" d="M22.8,29.7H3c-0.8,0-1.5-0.3-2.1-0.8C0.3,28.3,0,27.5,0,26.7v-1.8c0-1.2,0.4-2.3,1.1-3.3
	c0.7-0.9,1.7-1.6,2.9-1.9l3.7-0.9L8,19.1c1.3,1,3,1.5,4.6,1.6c1.8,0.1,3.7-0.5,5.1-1.6l0.3-0.2l3.7,0.9c1.2,0.3,2.2,0.9,2.9,1.9
	c0.7,0.9,1.1,2.1,1.1,3.3v1.8C25.8,28.4,24.5,29.7,22.8,29.7C22.8,29.7,22.8,29.7,22.8,29.7z M7.4,20.4l-3,0.8
	c-0.8,0.2-1.6,0.7-2.1,1.4c-0.5,0.7-0.8,1.5-0.8,2.3v1.8c0,0.8,0.7,1.5,1.5,1.5c0,0,0,0,0,0h19.7c0.8,0,1.5-0.7,1.5-1.5c0,0,0,0,0,0
	v-1.8c0-0.9-0.3-1.7-0.8-2.3c-0.5-0.7-1.3-1.2-2.1-1.4l0,0l-3-0.8C15.1,22.7,10.8,22.7,7.4,20.4z"/>
<path class="st0" d="M12.9,19.6c-1.5,0-2.9-0.4-4.2-1.1c-1.3-0.7-2.3-1.8-3.1-3.1c-1.5-2.6-1.5-5.8,0-8.4c0.7-1.3,1.8-2.3,3.1-3
	c2.6-1.5,5.8-1.5,8.4,0c1.3,0.7,2.3,1.8,3,3c1.5,2.6,1.5,5.8,0,8.4c-0.7,1.3-1.8,2.3-3,3.1C15.8,19.2,14.4,19.6,12.9,19.6z
	 M12.9,4.4c-1.2,0-2.4,0.3-3.4,0.9C8.4,5.9,7.6,6.8,7,7.8c-1.2,2.1-1.2,4.7,0,6.9c0.6,1,1.5,1.9,2.5,2.5c2.1,1.2,4.7,1.2,6.9,0
	c1-0.6,1.9-1.5,2.5-2.5c1.2-2.1,1.2-4.7,0-6.9c-0.6-1-1.5-1.9-2.5-2.5C15.3,4.7,14.1,4.4,12.9,4.4z"/>
<circle class="st1" cx="21.1" cy="6.4" r="5.4"/>
<path class="st0" d="M24.3,5.8h-2.5V3.5c0-0.4-0.3-0.6-0.6-0.6c-0.4,0-0.6,0.3-0.6,0.6v2.4h-2.5c-0.3,0-0.6,0.3-0.6,0.6
	s0.3,0.6,0.6,0.6h2.5v2.4c0,0.4,0.3,0.6,0.6,0.6c0.4,0,0.6-0.3,0.6-0.6V7.1h2.5c0.3,0,0.6-0.3,0.6-0.6S24.6,5.8,24.3,5.8z"/>
</svg>
