<svg id="Layer_1" data-name="Layer 1" xmlns="http://www.w3.org/2000/svg" viewBox="0 0 25.84 26.84"><defs><style>.cls-1{fill:#cac9c9;}</style></defs><title>user</title><path class="cls-1" d="M24.89,26.84H5.11A2.94,2.94,0,0,1,3,26a2.94,2.94,0,0,1-.89-2.15V22.05a5.16,5.16,0,0,1,1.14-3.27,5.23,5.23,0,0,1,2.9-1.88L9.83,16l0.28,0.21a8.23,8.23,0,0,0,4.63,1.57,8.11,8.11,0,0,0,5.15-1.57l0.28-.2,3.71,0.94a5.23,5.23,0,0,1,2.9,1.88,5.16,5.16,0,0,1,1.14,3.27v1.76A3,3,0,0,1,24.89,26.84ZM9.53,17.58l-3,.77a3.72,3.72,0,0,0-2.09,1.35,3.65,3.65,0,0,0-.81,2.34v1.76a1.52,1.52,0,0,0,1.53,1.53H24.89a1.52,1.52,0,0,0,1.53-1.53V22.05a3.65,3.65,0,0,0-.81-2.34,3.72,3.72,0,0,0-2.09-1.35h0l-3-.77A9.87,9.87,0,0,1,9.53,17.58Z" transform="translate(-2.08 0)"/><path class="cls-1" d="M15,16.71a8.22,8.22,0,0,1-4.18-1.12,8.33,8.33,0,0,1-3.05-3.05,8.34,8.34,0,0,1,0-8.36,8.33,8.33,0,0,1,3.05-3.05,8.34,8.34,0,0,1,8.36,0,8.33,8.33,0,0,1,3.05,3.05,8.34,8.34,0,0,1,0,8.36,8.33,8.33,0,0,1-3.05,3.05A8.22,8.22,0,0,1,15,16.71ZM15,1.5a6.74,6.74,0,0,0-3.43.92A6.85,6.85,0,0,0,9.06,4.93a6.84,6.84,0,0,0,0,6.86,6.85,6.85,0,0,0,2.51,2.51,6.84,6.84,0,0,0,6.86,0,6.85,6.85,0,0,0,2.51-2.51,6.84,6.84,0,0,0,0-6.86,6.85,6.85,0,0,0-2.51-2.51A6.74,6.74,0,0,0,15,1.5Z" transform="translate(-2.08 0)"/></svg>